<svg xmlns="http://www.w3.org/2000/svg" viewBox="0 0 2175.22 2002.59"><defs><style>.cls-1{fill:#e8ca4d;}.cls-2{opacity:0.3;}.cls-3{fill:#000072;}.cls-4{fill:#1b94ef;}.cls-5{opacity:0.7;}.cls-6{fill:#fff;}.cls-7{opacity:0.2;}.cls-8{fill:#ede726;}.cls-9{opacity:0.5;}</style></defs><g id="Layer_2" data-name="Layer 2"><g id="Layer_1-2" data-name="Layer 1"><path class="cls-1" d="M2087.84,1143.17c291.41-478.71-204.9-848.62-624.35-842.94-307.78,4.16-620.4-13.16-926.22,30.08C171.54,382-10.34,578.44.45,952.66c8.47,294.19,150.44,651.84,422.37,804.51,295,165.58,628.49,145.85,929,18.95,90.21,88.35,259.93,211.4,515.83,226.47,0,0-128.67-224.54-133-458.87C1876.8,1427.88,1998.67,1289.92,2087.84,1143.17Z"/><g class="cls-2"><ellipse class="cls-3" cx="1087.61" cy="1650.22" rx="513.72" ry="105.56"/></g><path class="cls-4" d="M1007.39,585.93c211.22,0,273.95,23.11,273.95,23.11,103.61,32.83,166.78,72.83,203.29,103.2a110.44,110.44,0,0,1,39.45,94.87l-65.63,723.7A155.68,155.68,0,0,1,1350.67,1665c-27.08,8.64-54.66,16-81.82,22.22a1169.41,1169.41,0,0,1-522.91,0c-27.17-6.24-54.75-13.58-81.83-22.22a155.68,155.68,0,0,1-107.78-134.19L490.7,807.11a110.42,110.42,0,0,1,39.46-94.87c36.51-30.37,99.67-70.37,203.28-103.2C733.44,609,796.18,585.93,1007.39,585.93Z"/><g class="cls-2"><path class="cls-3" d="M1484.86,890.4l-55.94,616.8a155.66,155.66,0,0,1-107.77,134.19c-27.07,8.62-54.67,16-81.83,22.2a1168.5,1168.5,0,0,1-522.9,0c-27.15-6.23-54.75-13.58-81.82-22.2a156.7,156.7,0,0,1-34.51-15.88q-3.11-3.18-6-6.49l1.33.29a1168.46,1168.46,0,0,0,522.89,0c.62-.12,1.24-.26,1.86-.41,106-24.53,184-115,193.85-223.34l40.27-443.87S1457.94,932.76,1484.86,890.4Z"/></g><g class="cls-5"><path class="cls-6" d="M772.5,1687.22c-27.16-6.24-54.74-13.58-81.82-22.22A155.67,155.67,0,0,1,582.9,1530.81l-65.63-723.7a110.44,110.44,0,0,1,39.45-94.87C593.23,681.87,656.4,641.87,760,609c0,0,60.11-22.13,260.66-23.07q-6.54,0-13.28,0C796.18,585.93,733.44,609,733.44,609c-103.61,32.83-166.77,72.83-203.28,103.2a110.42,110.42,0,0,0-39.46,94.87l65.63,723.7A155.68,155.68,0,0,0,664.11,1665c27.08,8.64,54.66,16,81.83,22.22a1169.24,1169.24,0,0,0,274.73,29.51A1169,1169,0,0,1,772.5,1687.22Z"/></g><path class="cls-1" d="M1218.2,687.49s-44.9-11-210.81-11-210.81,11-210.81,11C666.14,715.76,558.31,795.88,558.31,795.88s8.5,71.32,66.43,89.29,166.57,55.9,382.65,63.19c216.08-7.29,324.73-45.22,382.65-63.19s66.43-89.29,66.43-89.29S1348.64,715.76,1218.2,687.49Z"/><path class="cls-3" d="M1007.39,1016.77c-188.55,0-353.52-53.29-435.07-85a98.56,98.56,0,0,1-58.15-61.57l-30.7-94.28,19.06-6.2L533.23,864A78.57,78.57,0,0,0,579.59,913c80.25,31.26,242.52,83.69,427.8,83.69s347.55-52.43,427.8-83.69A78.57,78.57,0,0,0,1481.55,864l30.7-94.28,19.06,6.2-30.69,94.28a98.57,98.57,0,0,1-58.16,61.57C1360.91,963.48,1196,1016.77,1007.39,1016.77Z"/><path class="cls-3" d="M1007.39,958.39c-174,0-316.46-39.93-385.9-63.74a99.38,99.38,0,0,1-61.8-62.58L548.79,799a67.13,67.13,0,0,1,27.9-77.95c42.76-27,110.24-63.42,189-83.94,6.08-2,61.57-18.66,241.66-18.66s235.58,16.64,241.67,18.66c78.79,20.52,146.28,57,189,83.94h0A67.13,67.13,0,0,1,1466,799l-10.9,33.05a99.38,99.38,0,0,1-61.8,62.58C1323.85,918.46,1181.37,958.39,1007.39,958.39Zm0-319.87c-182.6,0-234.93,17.5-235.44,17.67-.25.09-.56.19-.82.26C694.67,676.29,629,711.77,587.38,738a47.11,47.11,0,0,0-19.55,54.71l10.9,33A79.24,79.24,0,0,0,628,875.69c68.26,23.39,208.33,62.65,379.4,62.65s311.14-39.26,379.4-62.65a79.24,79.24,0,0,0,49.26-49.9l10.9-33A47.11,47.11,0,0,0,1427.4,738c-41.62-26.26-107.29-61.74-183.75-81.58l-.87-.27C1242.32,656,1190,638.52,1007.39,638.52Z"/><path class="cls-3" d="M1007.39,1726.69a1180.29,1180.29,0,0,1-263.7-29.7c-29.12-6.68-56.92-14.24-82.63-22.44a165.4,165.4,0,0,1-114.71-142.84L480.72,808a120.48,120.48,0,0,1,43-103.48c35-29.13,99.27-71,206.49-105,5.2-1.84,71.1-23.63,277.16-23.63s272,21.79,277.16,23.63c107.22,34,171.46,75.86,206.49,105a120.48,120.48,0,0,1,43,103.48l-65.63,723.7a165.39,165.39,0,0,1-114.71,142.84c-25.71,8.2-53.51,15.76-82.63,22.44A1180.29,1180.29,0,0,1,1007.39,1726.69Zm0-1130.73c-205.65,0-269.89,22.28-270.52,22.5l-.4.14c-104.23,33-166.24,73.34-199.9,101.34a100.43,100.43,0,0,0-35.88,86.26l65.63,723.7a145.38,145.38,0,0,0,100.84,125.55c25.18,8,52.44,15.44,81,22a1165.5,1165.5,0,0,0,518.42,0c28.58-6.56,55.84-14,81-22a145.38,145.38,0,0,0,100.84-125.55l65.63-723.7a100.43,100.43,0,0,0-35.88-86.26c-33.66-28-95.67-68.31-199.9-101.34l-.43-.15C1277.29,618.24,1213.05,596,1007.39,596Z"/><g class="cls-7"><path class="cls-6" d="M726.65,1420.54h0a70.37,70.37,0,0,1-74.29-66.22L642,1174.47a70.37,70.37,0,0,1,66.22-74.29h0a70.37,70.37,0,0,1,74.3,66.22l10.32,179.85A70.37,70.37,0,0,1,726.65,1420.54Z"/></g><path class="cls-8" d="M633.27,804.51s-1.34,13.13-13.12,13.13c0,0,13.12,1.17,13.12,14.73,0-13.56,13.13-14.73,13.13-14.73C634.61,817.64,633.27,804.51,633.27,804.51Z"/><path class="cls-8" d="M1328.17,766.07s-1.34,13.13-13.13,13.13c0,0,13.13,1.17,13.13,14.73,0-13.56,13.12-14.73,13.12-14.73C1329.51,779.2,1328.17,766.07,1328.17,766.07Z"/><path class="cls-8" d="M755.94,869.55s-7.74,10.68-17.94,4.77c0,0,10.77,7.6,4,19.33,6.81-11.73,18.75-6.16,18.75-6.16C750.52,881.58,755.94,869.55,755.94,869.55Z"/><path class="cls-8" d="M1338.46,849.88s-2.5,13-14.24,11.9c0,0,13,2.34,11.76,15.84,1.21-13.5,14.39-13.5,14.39-13.5C1338.63,863.07,1338.46,849.88,1338.46,849.88Z"/><path class="cls-8" d="M720.15,759.61s-4.95,6.83-11.47,3c0,0,6.88,4.86,2.53,12.36,4.35-7.5,12-3.93,12-3.93C716.68,767.3,720.15,759.61,720.15,759.61Z"/><path class="cls-8" d="M899.68,845.76s-12.46,17.18-28.85,7.67c0,0,17.31,12.22,6.37,31.07,10.94-18.85,30.14-9.89,30.14-9.89C891,865.1,899.68,845.76,899.68,845.76Z"/><path class="cls-8" d="M1051.44,890.49s-5,6.84-11.47,3c0,0,6.88,4.87,2.53,12.37,4.35-7.5,12-3.94,12-3.94C1048,898.19,1051.44,890.49,1051.44,890.49Z"/><path class="cls-8" d="M1201.67,837.07s4.33,12.46-6.35,17.45c0,0,12.4-4.49,18.13,7.8-5.73-12.29,5.67-18.9,5.67-18.9C1208.43,848.4,1201.67,837.07,1201.67,837.07Z"/><path class="cls-6" d="M1489.28,765.51c-56.44,17.56-69.72-13.28-85.39-10.89s-62.61,11.36-48.38-47c0,0-41.27-50.27-108.63-55.49,0,0,13.75,90.92,6.14,163,0,0-40.18-19.66-78-16.44a74.88,74.88,0,0,0-23.79,5.7c-42.36,18.33-65.15,44.27-143.91,44.27s-101.51-25.94-143.9-44.27a75.16,75.16,0,0,0-23.56-5.67c-37.9-3.34-78.28,16.41-78.28,16.41-7.59-72.11,6.17-163,6.17-163-67.36,5.22-108.63,55.49-108.63,55.49,14.23,58.36-32.74,49.36-48.38,47s-29,28.48-85.4,10.92c-31.38-9.74-36.57-33.74-35-53.16A85.14,85.14,0,0,1,492,701.16a83.36,83.36,0,0,1,12.73-28.4c61.81-89.59,153.67-135.16,242-157.51,134.31-34.06,260.5-14.46,260.5-14.46s114.92-17.83,242.15,10.09l.38.09c6,1.33,12.1,2.78,18.18,4.31,88.29,22.41,180.07,68,241.85,157.48a82.94,82.94,0,0,1,13.37,31.44,73.87,73.87,0,0,1,1.09,8.15C1525.86,731.77,1520.66,755.77,1489.28,765.51Z"/><g class="cls-2"><path class="cls-3" d="M839.82,745.91v52.84c-37.9-3.34-78.28,16.41-78.28,16.41-7.59-72.11,6.17-163,6.17-163s13.46-50.45,13.75-53.13C781.45,599,771,664.62,839.82,745.91Z"/></g><g class="cls-2"><path class="cls-3" d="M1524.29,712.35a73.87,73.87,0,0,0-1.09-8.15c-33.27,66.48-117.31,22.41-117.31,22.41-39.29,12.81-23.82-34.78-23.82-34.78-35.87-41.42-76.22-55.79-98.67-60.75a47.42,47.42,0,0,1-26.12-16,56.11,56.11,0,0,0-7.44-7.39,29.05,29.05,0,0,1-9.87-30.37,281.28,281.28,0,0,0,8.33-38.51A306.8,306.8,0,0,0,1268,515.28c-6.08-1.53-12.13-3-18.18-4.31-.06-.44-.09-.68-.09-.68a6.45,6.45,0,0,1-.29.59c-127.23-27.92-242.15-10.09-242.15-10.09s-126.19-19.6-260.5,14.46c58,77.13,153.08,127.43,260.62,127.43h1.94c40.37-.23,44.32,58.72,4.26,63.74-4.05.51-6.32.64-6.32.64s100.9-2.59,131.89-.38S1175,735.34,1175,735.34v63.38c37.87-3.22,78,16.44,78,16.44,7.61-72.11-6.14-163-6.14-163,67.36,5.22,108.63,55.49,108.63,55.49-14.23,58.36,32.73,49.36,48.38,47s28.95,28.45,85.39,10.89C1520.66,755.77,1525.86,731.77,1524.29,712.35Z"/></g><g class="cls-2"><path class="cls-3" d="M781.45,599,767.7,652.13c-67.36,5.22-108.63,55.49-108.63,55.49,14.23,58.36-32.74,49.36-48.38,47s-29,28.48-85.4,10.92c-31.38-9.74-36.57-33.74-35-53.16A85.14,85.14,0,0,1,492,701.16c24.24,56.09,103.94,25,103.94,25,42.71,16.62,41.09-38.73,41.09-38.73,52.6-56.94,106.15-58.92,106.15-58.92C760.58,595.54,781.45,599,781.45,599Z"/></g><g class="cls-2"><path class="cls-3" d="M1175,735.34v63.38a74.88,74.88,0,0,0-23.79,5.7c-42.36,18.33-65.15,44.27-143.91,44.27s-101.51-25.94-143.9-44.27a75.16,75.16,0,0,0-23.56-5.67V735.34s-.26-9.71,12-20.28c0,0,48.2,90.54,155.5,83.69s58.54-91.69,58.54-91.69S1162.07,693.46,1175,735.34Z"/></g><path class="cls-3" d="M757.36,650.87a122.24,122.24,0,0,1,3.06-14.13q1.89-6.88,4.41-13.61c3.36-8.94,7.51-17.78,13.52-25.54a3.52,3.52,0,0,1,6.25,2.7l0,.11c-1.43,9-2.68,17.81-3.73,26.67l-2.79,26.33,0,.14a10.43,10.43,0,1,1-20.74-2.2C757.31,651.2,757.34,651,757.36,650.87Z"/><path class="cls-3" d="M676.2,685.24c-14.62-69.09-72.09-102.62-72.67-103l10.29-18.14c2.69,1.52,66.16,38.23,82.79,116.77Z"/><path class="cls-3" d="M1236.51,653.4l-2.79-26.33c-1-8.86-2.3-17.63-3.73-26.67l0-.11a3.51,3.51,0,0,1,6.25-2.7c6,7.76,10.16,16.6,13.52,25.54,1.67,4.48,3.16,9,4.41,13.61a122.24,122.24,0,0,1,3.06,14.13,10.43,10.43,0,0,1-20.62,3.15l-.06-.44Z"/><path class="cls-3" d="M1338.37,685.24l-20.4-4.32c16.62-78.54,80.09-115.25,82.78-116.77L1411,582.29C1410.46,582.62,1353,616.15,1338.37,685.24Z"/><path class="cls-3" d="M1185.39,798.74h-20.85V741.08a24,24,0,0,0-24-24H874.21a24,24,0,0,0-24,24v57.66H829.39V741.08a44.88,44.88,0,0,1,44.82-44.82h266.36a44.88,44.88,0,0,1,44.82,44.82Z"/><path class="cls-3" d="M970.7,845.4H955.94V786.49H933.59a7.38,7.38,0,0,1-7.38-7.38V706.69H941v65h22.35a7.37,7.37,0,0,1,7.38,7.37Z"/><circle class="cls-3" cx="1085.25" cy="788.45" r="29.57" transform="translate(133.15 1733.38) rotate(-80.78)"/><path class="cls-3" d="M1007.29,859.12c-62.13,0-91.63-15.86-120.17-31.19-8.81-4.74-17.92-9.63-27.88-13.94-37.4-16.19-92.57,10.28-93.12,10.55a10.43,10.43,0,0,1-15-8.28c-6-56.78.86-123.78,4.39-152.09-44.67,7.88-75.42,36.36-85.15,46.49,3.82,19.64,1.22,34.52-7.77,44.31-14.65,16-39.92,12-52.07,10.17l-1.45-.23c-1.52-.21-5.64,2.09-9.28,4.12-13.14,7.36-35.12,19.66-77.65,6.44-29.86-9.28-44.88-32-42.29-64a92,92,0,0,1,16.25-44.68C561.57,572,671.13,511.49,813,491.76c99.86-13.88,181.56-3.33,194.28-1.51,12.71-1.82,94.42-12.37,194.27,1.51C1343.44,511.49,1453,572,1518.42,666.83a92,92,0,0,1,16.25,44.68c2.59,32-12.43,54.68-42.29,64-42.53,13.23-64.51.92-77.65-6.44-3.64-2-7.77-4.31-9.28-4.12l-1.45.23c-12.15,1.88-37.42,5.8-52.07-10.17-9-9.79-11.59-24.68-7.77-44.31-9.71-10.11-40.47-38.61-85.15-46.49,3.53,28.31,10.37,95.31,4.39,152.09a10.43,10.43,0,0,1-15,8.28c-.55-.27-55.72-26.74-93.12-10.55-10,4.31-19.07,9.2-27.88,13.94C1098.91,843.26,1069.41,859.12,1007.29,859.12ZM831,787.93c12.37,0,24.93,1.9,36.53,6.92,10.77,4.66,20.28,9.77,29.47,14.71,27.47,14.76,53.42,28.71,110.3,28.71s82.82-13.95,110.29-28.71c9.19-4.94,18.7-10,29.47-14.71,33.67-14.58,75.51-2.81,96.8,5.17,4.46-67.28-7.17-145.49-7.3-146.33a10.43,10.43,0,0,1,11.12-12c71,5.49,114.09,57.09,115.89,59.28a10.43,10.43,0,0,1,2.07,9.09c-3.65,15-3.07,25.6,1.66,30.76,7.11,7.75,24.94,5,33.51,3.66l1.53-.24c8.58-1.3,15.7,2.69,22.59,6.54,12.16,6.81,27.3,15.29,61.27,4.73,20.43-6.36,29.49-20.21,27.7-42.37a71.21,71.21,0,0,0-12.64-34.51c-78.34-113.53-207.77-153.08-302.56-166.26-103.44-14.39-189-1.45-189.8-1.32a10.73,10.73,0,0,1-3.2,0c-.86-.13-86.85-13.08-190.36,1.4-94.6,13.23-223.78,52.81-302,166.18a71.21,71.21,0,0,0-12.64,34.51c-1.79,22.16,7.27,36,27.7,42.37,34,10.56,49.11,2.08,61.27-4.73,6.89-3.85,14-7.83,22.59-6.54l1.53.24c8.56,1.33,26.39,4.09,33.51-3.66,4.73-5.16,5.31-15.8,1.66-30.76A10.43,10.43,0,0,1,651,701c1.8-2.19,44.91-53.79,115.89-59.28a10.42,10.42,0,0,1,11.12,12c-.13.84-11.77,79-7.3,146.33C784.67,794.79,807.46,787.93,831,787.93Z"/><path class="cls-6" d="M839.82,745.91s-45.45-18.59-74.67-74c0,0-32.81,24.32-5.4,69.38,0,0,19.82,42.24,80.07,57.41Z"/><g class="cls-2"><path class="cls-3" d="M765.66,717.71c-7.78-12.79-10.7-23.9-10.91-33.27-6.5,11.47-11,30.66,5,56.88,0,0,19.82,42.24,80.07,57.41V773.5C784.17,757.16,765.66,717.71,765.66,717.71Z"/></g><path class="cls-3" d="M839.82,809.16a10.53,10.53,0,0,1-2.55-.31c-61.16-15.41-83.83-56.85-86.68-62.52-25.21-41.86-5.6-72.43,8.35-82.77a10.43,10.43,0,0,1,15.43,3.51c27.14,51.44,69,69,69.4,69.19a10.42,10.42,0,0,1,6.48,9.65v52.82a10.43,10.43,0,0,1-10.43,10.43ZM763.48,689.88c-4.93,9-8,24.29,5.18,46a9.41,9.41,0,0,1,.53,1c.66,1.37,15.95,32.13,60.2,47.81V752.45C816.49,745.67,787,727.14,763.48,689.88Z"/><path class="cls-6" d="M1175,745.91s45.45-18.59,74.67-74c0,0,32.81,24.32,5.4,69.38,0,0-19.82,42.24-80.07,57.41Z"/><g class="cls-2"><path class="cls-3" d="M1249.13,717.71c7.77-12.79,10.7-23.9,10.9-33.27,6.5,11.47,11,30.66-5,56.88,0,0-19.82,42.24-80.07,57.41V773.5C1230.61,757.16,1249.13,717.71,1249.13,717.71Z"/></g><path class="cls-3" d="M1175,809.16a10.41,10.41,0,0,1-10.42-10.43V745.91a10.41,10.41,0,0,1,6.45-9.64c.5-.21,42.5-18.19,69.42-69.2a10.43,10.43,0,0,1,15.43-3.51c14,10.34,33.56,40.91,8.35,82.77-2.85,5.67-25.52,47.11-86.68,62.52A10.53,10.53,0,0,1,1175,809.16Zm10.43-56.71v32.26c44.25-15.68,59.54-46.44,60.22-47.86.15-.31.33-.66.51-1,13.21-21.71,10.12-37,5.17-46C1227.79,727.14,1198.29,745.67,1185.39,752.45Z"/><path class="cls-6" d="M722.43,204.76H686.37A52.19,52.19,0,0,0,634.19,257V396.43a52.18,52.18,0,0,0,52.18,52.18h36.06Z"/><g class="cls-2"><path class="cls-3" d="M634.19,316.72v79.71a52.18,52.18,0,0,0,52.18,52.18h36.06v-79.7H686.37A52.18,52.18,0,0,1,634.19,316.72Z"/></g><path class="cls-3" d="M722.43,459H686.37a62.69,62.69,0,0,1-62.61-62.62V257a62.68,62.68,0,0,1,62.61-62.61h36.06a10.43,10.43,0,0,1,10.43,10.42V448.61A10.43,10.43,0,0,1,722.43,459ZM686.37,215.19A41.8,41.8,0,0,0,644.62,257V396.42a41.8,41.8,0,0,0,41.75,41.76H712v-223Z"/><path class="cls-6" d="M1292.35,204.76h36.06A52.19,52.19,0,0,1,1380.59,257V396.43a52.18,52.18,0,0,1-52.18,52.18h-36.06Z"/><g class="cls-2"><path class="cls-3" d="M1380.59,316.72v79.71a52.18,52.18,0,0,1-52.18,52.18h-36.06v-79.7h36.06A52.18,52.18,0,0,0,1380.59,316.72Z"/></g><path class="cls-3" d="M1328.41,459h-36.06a10.43,10.43,0,0,1-10.43-10.43V204.76a10.43,10.43,0,0,1,10.43-10.42h36.06A62.68,62.68,0,0,1,1391,257V396.42A62.69,62.69,0,0,1,1328.41,459Zm-25.63-20.86h25.63a41.8,41.8,0,0,0,41.75-41.76V257a41.8,41.8,0,0,0-41.75-41.76h-25.63Z"/><ellipse class="cls-6" cx="1007.39" cy="313.28" rx="319.65" ry="302.85"/><g class="cls-2"><path class="cls-3" d="M1327.05,313.28c0,167.26-143.14,302.84-319.66,302.84-96.32,0-182.69-40.36-241.32-104.23,51.72,34.06,114.54,54,182.28,54,2.83,0,5.64,0,8.45-.1q16.71-.42,33.43.35c5.67.27,11.4.4,17.16.4,153.29,0,277.54-95.46,277.54-213.21A169.61,169.61,0,0,0,1267.57,279c.29-5.28.44-10.57.44-15.91,0-76-29.55-145.44-78.34-198.63C1272.68,119.17,1327.05,210.2,1327.05,313.28Z"/></g><ellipse class="cls-3" cx="1007.39" cy="353.37" rx="263.98" ry="202.79"/><g class="cls-9"><path class="cls-6" d="M794.89,332.5c.76-2.73,1.43-5,2.24-7.36s1.69-4.65,2.6-6.93q2.78-6.85,6.13-13.44a182.59,182.59,0,0,1,15.59-25.22,187.55,187.55,0,0,1,19.64-22.71,194.33,194.33,0,0,1,23.44-19.35A181.93,181.93,0,0,1,920,211.6a196.28,196.28,0,0,1,60.38-6.6,19.56,19.56,0,0,1-.63,39.1h-.24a246.12,246.12,0,0,0-49.93,5.36A178,178,0,0,0,883.06,267a189.43,189.43,0,0,0-40.83,30.4,211,211,0,0,0-17.62,19.36c-2.82,3.38-5.43,6.93-8,10.51-1.3,1.79-2.55,3.61-3.75,5.44s-2.47,3.77-3.44,5.33l-.4.64a7.79,7.79,0,0,1-14.11-6.21Z"/></g><path class="cls-3" d="M1007.39,626.56c-182,0-330.07-140.54-330.07-313.28S825.39,0,1007.39,0s330.07,140.54,330.07,313.28S1189.39,626.56,1007.39,626.56Zm0-605.7c-170.5,0-309.22,131.18-309.22,292.42S836.89,605.7,1007.39,605.7s309.22-131.18,309.22-292.42S1177.89,20.86,1007.39,20.86Z"/></g></g></svg>